<svg xmlns="http://www.w3.org/2000/svg" fill="none" viewBox="0 0 216 216"><path fill="#ffd33b" d="M108.094 183.847c41.888 0 75.846-33.957 75.846-75.846 0-41.888-33.958-75.846-75.846-75.846s-75.846 33.958-75.846 75.846 33.958 75.846 75.846 75.846"/><path fill="#ffea89" d="M60.546 112.389a6.27 6.27 0 1 0 0-12.54 6.27 6.27 0 0 0 0 12.54M155.634 112.389a6.27 6.27 0 1 0-.001-12.54 6.27 6.27 0 0 0 .001 12.54"/><path fill="#000" d="M82.764 100.528a7.973 7.973 0 1 0 0-15.945 7.973 7.973 0 0 0 0 15.945M133.414 100.528a7.97 7.97 0 0 0 7.972-7.973 7.973 7.973 0 1 0-7.972 7.973"/><path fill="#000" fill-rule="evenodd" d="M125.677 115.435a3.993 3.993 0 0 1 7.108 3.637c-4.522 8.847-13.728 14.907-24.34 14.907-11.314 0-21.024-6.885-25.174-16.689a3.99 3.99 0 0 1 2.12-5.232 3.996 3.996 0 0 1 5.235 2.12c2.936 6.941 9.809 11.818 17.819 11.818 7.509 0 14.027-4.296 17.232-10.561" clip-rule="evenodd"/><path fill="#ffd33b" fill-rule="evenodd" d="M109.27.012c3.556 0 6.435 2.893 6.435 6.443v13.699c0 3.55-2.879 6.444-6.435 6.444h-2.54c-3.556 0-6.435-2.894-6.435-6.444V6.455c0-3.55 2.879-6.443 6.435-6.443zM67.852 7.743c3.285-1.36 7.052.211 8.41 3.49l5.243 12.657c1.358 3.28-.194 7.055-3.48 8.416l-2.346.972c-3.285 1.36-7.053-.212-8.411-3.491-1.595-3.85-3.663-8.841-5.242-12.656-1.359-3.28.193-7.055 3.479-8.416zM32.544 30.725c2.514-2.515 6.596-2.504 9.106.006l9.687 9.686c2.51 2.51 2.52 6.593.006 9.108l-1.796 1.796c-2.514 2.514-6.597 2.503-9.107-.007l-9.686-9.686c-2.51-2.51-2.521-6.592-.007-9.107zM8.724 65.484c1.36-3.285 5.136-4.837 8.416-3.479l12.655 5.242c3.28 1.359 4.852 5.126 3.492 8.412l-.972 2.346c-1.361 3.286-5.137 4.838-8.417 3.48l-12.656-5.243c-3.28-1.358-4.851-5.125-3.49-8.41zM.012 106.727c0-3.556 2.893-6.435 6.443-6.435h13.699c3.55 0 6.444 2.879 6.444 6.435v2.54c0 3.556-2.894 6.435-6.444 6.435H6.455c-3.55 0-6.443-2.879-6.443-6.435zM7.743 148.146c-1.36-3.286.211-7.053 3.49-8.412l12.657-5.242c3.28-1.358 7.055.194 8.416 3.479l.972 2.347c1.36 3.285-.212 7.053-3.491 8.411l-12.656 5.243c-3.28 1.358-7.055-.194-8.416-3.48zM30.725 183.453c-2.515-2.514-2.504-6.596.006-9.106l9.686-9.686c2.51-2.511 6.593-2.522 9.108-.007l1.796 1.796c2.514 2.515 2.503 6.597-.007 9.107l-9.686 9.686c-2.51 2.511-6.592 2.521-9.107.007zM65.483 207.273c-3.285-1.361-4.837-5.136-3.479-8.415l5.242-12.656c1.359-3.28 5.126-4.852 8.412-3.492l2.346.973c3.286 1.36 4.838 5.136 3.48 8.416l-5.243 12.656c-1.358 3.28-5.125 4.851-8.41 3.49zM106.727 215.985c-3.556 0-6.435-2.893-6.435-6.443v-13.699c0-3.55 2.879-6.444 6.435-6.444h2.54c3.556 0 6.435 2.894 6.435 6.444v13.699c0 3.55-2.879 6.443-6.435 6.443zM148.146 208.255c-3.286 1.361-7.053-.211-8.412-3.491l-5.242-12.655c-1.358-3.28.194-7.056 3.479-8.417l2.347-.972c3.285-1.361 7.053.212 8.411 3.491l5.243 12.656c1.358 3.28-.194 7.055-3.48 8.416zM183.453 185.267c-2.514 2.515-6.596 2.504-9.106-.006l-9.686-9.686c-2.511-2.51-2.522-6.593-.007-9.107l1.796-1.796c2.515-2.515 6.597-2.504 9.107.006l9.686 9.686c2.511 2.511 2.521 6.593.007 9.107zM207.273 150.509c2.342 3.285.77 4.838-2.51 3.479l-18.561-5.242c-3.28-1.359-4.852-5.126-3.492-8.411l.973-2.347c1.36-3.286 5.136-4.838 8.416-3.479l12.656 5.242c3.28 1.358 4.851 5.126 3.49 8.411zM215.985 109.271c0 3.556-2.893 6.435-6.443 6.435h-13.699c-3.55 0-6.444-2.879-6.444-6.435v-2.54c0-3.556 2.894-6.435 6.444-6.435h13.699c3.55 0 6.443 2.879 6.443 6.435zM208.254 67.853c1.361 3.285-.211 7.052-3.491 8.41l-12.655 5.243c-3.28 1.358-7.056-.194-8.417-3.48l-.972-2.346c-1.361-3.286.212-7.053 3.491-8.411l12.656-5.243c3.28-1.358 7.055.194 8.416 3.48zM185.266 32.544c2.515 2.514 2.504 6.596-.006 9.106l-9.686 9.687c-2.51 2.51-6.593 2.52-9.107.006l-1.796-1.796c-2.515-2.514-2.504-6.597.006-9.107l9.687-9.686c2.51-2.51 6.592-2.521 9.106-.007zM150.508 8.724c3.285 1.36 4.838 5.136 3.479 8.416l-5.242 12.655c-1.359 3.28-5.126 4.852-8.411 3.492l-2.347-.972c-3.286-1.361-4.838-5.137-3.479-8.417l5.242-12.656c1.358-3.28 5.126-4.851 8.411-3.49z" clip-rule="evenodd"/></svg>
