<svg fill="none" height="293" viewBox="0 0 216 293" width="216" xmlns="http://www.w3.org/2000/svg"><path d="m107.398 196.343c54.126 0 98.004-43.953 98.004-98.1713 0-54.2187-43.878-98.1717-98.004-98.1717-54.1258 0-98.00347 43.953-98.00347 98.1717 0 54.2183 43.87767 98.1713 98.00347 98.1713z" fill="#b1003e"/><g fill="#fff"><path d="m68.433 51.5414c-7.8055.3938-12.896 1.9413-15.2714 4.6426-2.3754 2.7012-2.5574 6.4837-.5462 11.3476 1.4006 2.3213 2.6144 4.0202 3.6415 5.0964 1.027 1.0763 2.6046 2.2283 4.7326 3.456l-2.799 1.5985-1.9336 5.9108-4.7093 8.6186-7.8294 19.2981-1.5131 4.612c1.0201 5.999 1.9161 9.342 2.688 10.027.7718.685 2.1857.967 4.2417.844 2.0623 2.307 3.4045 3.129 4.0268 2.469.2478-.263.6394-.641.4589-1.915-.0808-.571-.8761-1.677-.8151-2.419.0588-.715.727-1.51.9479-3.054.0949-.663.0949-1.942 0-3.836l12.4069-12.725 7.1361 1.508 9.4317 1.678 2.376.642c6.0085-11.3809 9.4092-17.9939 10.2018-19.8389.7927-1.8449 1.2761-3.8145 1.4502-5.9088l-3.0672-2.8246c7.3422-2.8256 11.5142-4.8888 12.5152-6.1895 1.501-1.9512 4.212-7.8397 4.212-10.0688 0-1.486.22-6.6426.659-15.4696-4.294.5398-6.8.5398-7.518 0-1.076-.8097-2.087-4.0406-2.087-6.7576 0-1.8114-.558-4.2564-1.6756-7.3351l-3.0384-.8381c-.4578-2.2634-.9412-3.3952-1.4502-3.3952-.5089 0-1.0479.5402-1.617 1.6204-.646 2.4783-.9689 4.0192-.9689 4.6229 0 .9055-.6482 3.4749.9689 5.3251 1.078 1.2334 2.3453 3.486 3.8018 6.7576-.9079 3.3439-.9079 5.4718 0 6.3836 1.3618 1.3678 0 3.1737 0 4.2201 0 .6975-.2449 2.3195-.7346 4.8659-8.3528 1.4483-13.1358 1.9305-14.3493 1.4468-1.2134-.4837-3.1356.0411-5.7667 1.5744l-3.3437 3.2118c.5756-2.4761.5756-4.2935 0-5.4523-.8635-1.7382-1.3434-2.8344-1.3434-4.4137 0-.654-.9055-2.16-.9055-3.2481 0-.4424.1224-1.1774.3672-2.2049l-2.3812-2.2573c.5596-.0265.8741-.1843.9435-.4735s-.4453-.6733-1.5439-1.1522z"/><path d="m104.188 87.7634c-2.675 7.8324-4.609 12.9776-5.8026 15.4366-1.1936 2.458-3.3281 5.821-6.4035 10.086 2.5421 2.906 3.8131 4.904 3.8131 5.994 0 1.634-.2812 10.898-1.1664 15.236-.5902 2.893-1.19 17.394-1.7994 43.505.0004 4.528-.4532 7.33-1.3609 8.404-1.3616 1.612-2.9427 5.95-2.9427 7.13s-4.7697 5.387-4.7697 5.387 1.3282 2.469 2.4785 2.469c1.1504 0 6.2706-3.217 8.3942-5.897s3.6328-2.41 4.8679-3.548c1.2355-1.138 3.4725-4.202 2.3545-5.541-.746-.892-1.119-2.834-1.119-5.826 1.694-1.005 2.979-1.508 3.856-1.508 1.315 0 .245-4.7 1.953-9.636 1.139-3.292 3.85-20.433 8.132-51.425 2.626-7.743 4.404-11.988 5.334-12.733s4.64-3.898 11.131-9.4603c10.306-6.3885 16.054-10.1 17.244-11.1345 1.784-1.5517 19.225-6.5212 21.61-9.6869 1.59-2.1105 4.967-4.5537 10.13-7.3295v-1.969c3.256-1.1198 5.39-1.6797 6.401-1.6797 1.517 0 3.547.9311 4.629-1.4469 1.083-2.3779.375-5.026 1.888-6.2729s4.02-3.4401 4.785-4.7421c.764-1.3021 2.397-2.2305 1.581-3.2874-.817-1.057-5.125-.5441-5.745.4541-.621.9982-3.885 2.806-6.127 4.8018-1.495 1.3305-4.623 2.9612-9.384 4.8923-2.992-2.684-4.959-3.8046-5.902-3.3621-1.413.6639-11.717 6.0695-16.52 7.5163-4.803 1.4469-21.406 13.1032-25.77 14.1852-4.365 1.082-8.042 2.3298-9.951 3.7727-1.908 1.4429-4.292.8582-6.995 1.1505-1.364.1475-3.558 2.479-7.547 3.5503-.511.4905-.936 1.3287-1.277 2.5145z"/><path d="m84.7533 109.969c-.3858 1.907-.1565 3.934 0 5.028.8445 5.902-4.8881 7.407-4.8881 7.407l3.0226 2.611c6.0765-1.112 6.0765-8.861 6.0765-8.861-.2858-1.073-.5678-4.581-.422-5.55.0139.013 3.5596-4.195 6.6158-10.7077 1.5695-3.3445 3.0533-7.5319 4.0661-10.2912.9788-2.6671 1.1658-4.3857 1.0158-4.8694 0 .1657-1.8237-.6061-3.5517-1.0697-.0595 1.071-.6175 3.0887-1.4183 5.1303-.814 2.075-2.3946 4.4882-3.7063 7.1924-3.1001 6.3913-6.9768 13.6093-6.8104 13.9803z"/></g><path d="m4.21178 269.93c4.18566 2.216 8.24852 3.316 12.19932 3.316 4.3154 0 6.5962-1.247 7.2435-3.674.2386-.905.3604-1.969.3604-3.191v-1.128c0-1.256-.0878-2.25-.2544-2.968-.1291-.556-.3838-.981-.7923-1.327-.7509-.651-2.9469-1.321-6.4422-1.863-3.4078-.533-5.7716-1.038-7.14354-1.538-1.363-.496-2.50012-1.047-3.4138-1.661-.95377-.641-1.76811-1.445-2.44233-2.413-1.36111-1.979-2.02102-4.634-2.02102-7.945v-.289c0-6.938 3.01816-11.297 8.92639-12.701 1.7758-.409 3.7686-.611 5.9793-.611h.3752c5.1182 0 9.3388.745 12.6635 2.257l1.0835.492-2.3413 6.901-1.3061-.565c-3.635-1.571-6.9537-2.349-9.9553-2.349h-.2597c-3.206 0-5.3144.578-6.3437 1.609-.82404.826-1.28908 2.44-1.28908 4.88 0 2.816.67387 4.444 1.90878 5.145 1.0093.547 2.9927 1.075 5.8866 1.535 3.0563.486 5.3369.9 6.8525 1.245 1.6521.376 3.0795 1.003 4.2774 1.892 2.5448 1.912 3.7575 5.372 3.7575 10.274v.376c0 7.492-3.1542 12.171-9.3383 13.65-1.8119.449-3.533.675-5.1634.675-1.5555 0-2.9728-.055-4.2528-.164-1.2945-.111-2.6118-.306-3.94561-.586-3.15944-.645-5.82907-1.621-8.00633-2.938l-1.01446-.613 2.99626-6.367zm37.57272-37.409c-.0041-.002-.0076-.004-.0105-.005.0012 0 .0025.001.0038.002zm1.1198 2.75c-1.3468 0-2.2808-.206-2.9082-.835-.7109-.736-1.0548-1.718-1.0548-2.871 0-.941.0577-1.635.196-2.136.1557-.564.4108-1.042.7825-1.414.6417-.643 1.5336-.935 2.6076-.935.8466 0 1.4702.044 1.9192.149.56.13 1.0501.393 1.4421.786.65.651.9329 1.578.9329 2.726 0 .925-.0478 1.603-.1602 2.085-.133.569-.3752 1.061-.7727 1.488-.6772.678-1.6799.957-2.9844.957zm3.7146 7.073v37.031h-7.2996l-.0621-37.031zm20.5248 37.61c-5.1214 0-8.6926-1.973-10.4567-5.883-.9554-2.08-1.4908-4.283-1.6048-6.599-.1069-2.169-.1604-4.079-.1604-5.731 0-1.636.0145-3.287.0435-4.952.0299-1.713.1546-3.303.3752-4.769.2263-1.504.5839-2.87 1.0756-4.096.5232-1.304 1.282-2.425 2.2702-3.347 2.0354-1.905 5.2361-2.812 9.5685-2.812 3.4678 0 6.6729.502 9.6095 1.509v-15.611l7.4173-.716v35.3c0 6.61.1814 11.764.5421 15.453l.1302 1.332-6.8245.551-.5497-3.143c-3.7311 2.335-7.5484 3.514-11.436 3.514zm1.9913-31.221c-2.1446 0-3.5422.174-4.0469.433-.5509.283-.9464.629-1.2105 1.042-.3037.475-.5745 1.188-.7897 2.116-.4173 1.908-.6334 5.164-.6334 9.721v.636c0 4.125.4416 6.932 1.2357 8.328.7589 1.305 2.2109 1.977 4.5502 1.977h.4328c2.4118 0 5.0233-.783 7.8443-2.377.5318-.297 1.0089-.592 1.4311-.884-.0757-1.848-.1131-4.406-.1131-7.712l.0267-11.901c-3.0114-.921-5.9197-1.379-8.7272-1.379zm33.493 21.853c1.084 1.698 3.386 2.602 7.06 2.602 3.902 0 7.631-.763 11.2-2.293l1.301-.557 2.277 6.657-1.158.465c-4.143 1.664-8.705 2.494-13.678 2.494-2.908 0-5.397-.305-7.46-.918-3.4902-.999-5.8786-3.124-7.049-6.309-1.0046-2.772-1.4929-6.765-1.4929-12.012v-1.474c0-6.432 1.3675-11.049 4.2142-13.814 2.5757-2.472 6.7097-3.662 12.3657-3.662 5.59 0 9.54 1.433 11.734 4.408 1.051 1.426 1.74 3.138 2.071 5.117.31 1.853.466 3.626.466 5.32 0 2.558-.059 4.547-.178 5.978l-.096 1.155-1.157.05c-2.731.116-5.183.174-7.357.174h-4.646c-4.038 0-7.321-.145-9.86-.44.112 3.389.613 5.756 1.443 7.059zm14.347-13.268v-1.46c0-2.729-.505-4.584-1.42-5.591-1.018-1.125-2.932-1.736-5.809-1.736-3.498 0-5.766.724-6.874 2.047-.976 1.159-1.567 3.413-1.688 6.74zm23.671 22.057h-7.417v-51.582l7.417-.805v29.598c.185-.127.389-.286.611-.478 1.063-.924 2.005-1.802 2.827-2.634.829-.841 1.689-1.763 2.568-2.756 3.217-3.718 5.328-6.328 6.308-7.792l.39-.582h8.428l-.811 1.845c-.488 1.111-1.523 2.568-3.135 4.448l-3.888 4.389c-2.128 2.288-3.838 3.987-5.143 5.104-.393.336-.746.63-1.063.884 1.292.879 2.778 2.422 4.513 4.641l12.455 15.72h-9.429l-.395-.517-7.329-9.625c-3.159-4.136-5.554-6.259-6.838-6.369zm31.347-46.854c-.004-.002-.007-.004-.01-.005.001 0 .002.001.004.002zm1.12 2.75c-1.347 0-2.281-.206-2.908-.835-.711-.736-1.055-1.718-1.055-2.871 0-.941.058-1.635.196-2.136.156-.564.411-1.042.783-1.414.641-.643 1.533-.935 2.607-.935.847 0 1.47.044 1.92.149.559.13 1.05.393 1.442.786.65.651.932 1.578.932 2.726 0 .925-.047 1.603-.16 2.085-.133.569-.375 1.061-.772 1.488-.678.678-1.68.957-2.985.957zm3.715 7.073v37.031h-7.3l-.062-37.031zm20.9 37.61c-5.266 0-8.939-1.962-10.765-5.863-1.006-2.099-1.582-4.704-1.744-7.827-.059-1.369-.088-2.876-.088-4.523 0-1.636.014-3.287.043-4.952.03-1.713.155-3.303.375-4.769.227-1.504.584-2.87 1.076-4.096.523-1.304 1.282-2.425 2.27-3.347 2.027-1.897 5.041-2.812 8.992-2.812 2.897 0 4.782.731 10.569 3.592l.378-3.013h6.627l.03 50.185h-7.418v-15.376c-3.282 1.863-6.737 2.801-10.345 2.801zm1.616-31.221c-2.145 0-3.542.174-4.047.433-.551.283-.946.629-1.211 1.042-.303.475-.574 1.188-.789 2.116-.418 1.908-.634 5.164-.634 9.721v.636c0 4.054.492 6.841 1.398 8.31.795 1.316 2.292 1.995 4.677 1.995h.433c2.431 0 4.936-.676 7.539-2.052.499-.256.953-.514 1.363-.774v-18.667c-3.987-1.957-6.367-2.76-8.729-2.76z" fill="#000"/></svg>